<?xml version="1.0" encoding="UTF-8" standalone="no"?>
<svg xmlns:dc="http://purl.org/dc/elements/1.1/" xmlns:cc="http://creativecommons.org/ns#" xmlns:rdf="http://www.w3.org/1999/02/22-rdf-syntax-ns#" xmlns:svg="http://www.w3.org/2000/svg" xmlns="http://www.w3.org/2000/svg" xmlns:sodipodi="http://sodipodi.sourceforge.net/DTD/sodipodi-0.dtd" xmlns:inkscape="http://www.inkscape.org/namespaces/inkscape" version="1.1" id="Layer_1" x="0px" y="0px" width="2000" height="2000" viewBox="0 0 2000 2000" enable-background="new 0 0 306 308" xml:space="preserve" sodipodi:docname="Ajax Amsterdam 1991 Logo.svg" inkscape:version="1.0 (4035a4fb49, 2020-05-01)"><metadata id="metadata49"><rdf:RDF><cc:Work rdf:about=""><dc:format>image/svg+xml</dc:format><dc:type rdf:resource="http://purl.org/dc/dcmitype/StillImage"/><dc:title/></cc:Work></rdf:RDF></metadata><defs id="defs47"/><sodipodi:namedview inkscape:document-rotation="0" pagecolor="#ffffff" bordercolor="#666666" borderopacity="1" objecttolerance="10" gridtolerance="10" guidetolerance="10" inkscape:pageopacity="0" inkscape:pageshadow="2" inkscape:window-width="1920" inkscape:window-height="986" id="namedview45" showgrid="false" fit-margin-top="0" fit-margin-left="0" fit-margin-right="0" fit-margin-bottom="0" inkscape:zoom="0.21608353" inkscape:cx="-199.83486" inkscape:cy="1000.348" inkscape:window-x="-11" inkscape:window-y="-11" inkscape:window-maximized="1" inkscape:current-layer="Layer_1"/>
<path fill="#FFFFFF" d="M 1000.0067,2000 C 1552.2933,2000 2000,1552.2733 2000,1000 2000,447.73333 1552.2933,0 1000.0067,0 447.72667,0 7.4522575e-8,447.73333 7.4522575e-8,1000 -0.00666993,1552.2733 447.72667,2000 1000.0067,2000 Z" id="path2" style="fill:#ffffff;stroke-width:6.66667"/><path style="stroke-width:6.66667" d="M 612.35333,793.23333 C 600.57255,781.45255 586.98685,765.36699 577.98,749.76667 569.98,737.99333 540.07333,686.44 636.81333,695.74 l 3.16,0.57333 c 0.73334,0.22 253.42,72.42667 647.21337,462.07997 l -0.1334,-0.1266 c 0.1534,0.1533 57.24,55.12 -20.5266,78.2533 l -1.2934,0.3133 c -0.087,0.027 -32.92,6.22 -30.0533,40.6 8.6667,12.4267 24.1533,45.52 -40.5333,62.0934 l -1.3467,0.2466 c -0.1133,0.027 -41.9533,6.6067 -60.2,15.1267 l -4.12,1.3533 c -0.14,0.027 -48.1133,9.3334 -42.5867,-73.52 l 0.84,-4.0466 c 0.02,-0.1 10.98,-32.9667 -5.66,-54.82 -4.9,-6.4134 -12.3666,-7.9934 -19.0266,-9.3934 -22.5267,-4.7466 -40.7267,-8.58 -36.4867,-56.8733 0,-1.4667 0.2533,-20.08 6.7067,-36.1933 3.0466,-7.62 6.1066,-15.26 21.3266,-9.1667 15.2334,6.12 12.1867,13.76 9.1267,21.38 -4.2533,10.66 -4.2533,24.0333 -4.2533,24.0467 l -0.1467,1.5466 c -1.9467,20.5 3.5733,21.6734 10.4,23.1267 12.3267,2.58 26.2,5.5333 38.44,21.6067 23.6467,31.02 14.4,72.1266 11.54,82.5466 -1.9533,31.0467 1.82,36.3334 3.4267,37.1934 21.6933,-8.9867 58.1933,-15.14 64.3666,-16.14 25.9267,-6.7534 20.46,-12.4467 20.4334,-12.4734 l -4.3,-8.8066 c -9.96,-64.74 47.2666,-79.76 54.64,-81.4267 22.9466,-7.12 6.4333,-23 6.4,-23.0533 l -0.14,-0.12 C 892.29333,813.83333 654.02754,734.93535 634.15421,728.81535 c -7.40056,-1.98298 -27.23106,-2.74709 -28.36568,1.48735 -0.89425,3.30584 2.11518,7.31625 4.41814,11.45063 1.58,3.16 25.97333,28.91334 26.03333,28.98667 5.64,5.98667 11.28,11.98 -0.68,23.24 -11.94,11.22667 -17.56667,5.23333 -23.20667,-0.74667 z" id="path63" sodipodi:nodetypes="ccccccccccccccccccccccscccccccccccccccc"/>
<path fill="#d2122e" d="m 1827.94,1167.4267 c 5.5333,-27.56 9.7133,-55.3134 12.4667,-83.1067 2.7133,-27.4 4.1066,-55.52 4.1066,-84.32 0,-233.2 -94.5266,-444.32 -247.3533,-597.16 C 1444.3267,250.03333 1233.2,155.49333 1000,155.49333 c -3.3533,0 -6.78,0.02 -10.26667,0.0533 l -0.38666,-32.9 c 3.48,-0.0467 7.03333,-0.0733 10.65333,-0.0733 242.2867,0 461.6333,98.22 620.42,257.00667 158.7867,158.78667 257.0067,378.13333 257.0067,620.42 0,29.2067 -1.48,58.4133 -4.36,87.54 -2.9267,29.5267 -7.24,58.34 -12.8734,86.3067 z" id="path4" style="stroke-width:6.66667;fill:#da121a;fill-opacity:1"/>
<path fill="#d2122e" d="m 1797.7867,1161.4667 c 5.3133,-26.36 9.3466,-53.1067 12.02,-80.1467 2.64,-26.66 4.0133,-53.7733 4.0133,-81.3133 0,-224.71337 -91.1,-428.1667 -238.38,-575.44003 -147.2533,-147.26 -350.7067,-238.36 -575.4267,-238.36 -1.82,0 -3.63997,0.0133 -5.47997,0.02 -1.78666,0.02 -3.59333,0.02 -5.44666,0.0667 l -0.0933,-8.22666 c 1.8,-0.0267 3.66,-0.0467 5.51334,-0.06 1.82666,-0.007 3.66659,-0.0133 5.50659,-0.0133 226.9867,0 432.5067,92.01334 581.2534,240.77334 148.76,148.74666 240.78,354.26 240.78,581.24665 0,27.64 -1.38,55.0334 -4.0734,82.1 -2.7266,27.5 -6.7933,54.5267 -12.1133,80.9734 l -8.0733,-1.62 v 0 z" id="path6" style="stroke-width:6.66667;fill:#da121a;fill-opacity:1"/>
<path fill="#d2122e" d="m 1882.0933,1179.0533 c 5.9,-29.24 10.3867,-58.8866 13.3734,-88.88 2.9333,-29.5733 4.4466,-59.6533 4.4466,-90.1733 0,-248.49333 -100.7266,-473.46667 -263.58,-636.32667 -162.8466,-162.84666 -387.8266,-263.56666 -636.3266,-263.56666 -1.82,0 -3.64003,0.007 -5.48003,0.007 -1.78667,0.007 -3.60667,0.0333 -5.44667,0.0467 l -0.1,-8.22 c 1.80667,-0.02667 3.65333,-0.03333 5.52,-0.05333 1.82667,0 3.6667,-0.02667 5.5067,-0.02667 250.7666,0 477.8,101.66667 642.1533,266 164.3267,164.34 265.9733,391.36667 265.9733,642.13333 0,30.62 -1.5266,60.98 -4.5,90.9734 -3.0333,30.4466 -7.56,60.3666 -13.4733,89.6866 l -8.0667,-1.6 v 0 z" id="path8" style="stroke-width:6.66667;fill:#da121a;fill-opacity:1"/>
<path fill="#d2122e" d="m 156.84,952.38 c -0.47333,8.35333 -0.80667,16.27333 -1.02,23.78667 C 155.6,984.22 155.49333,992.18 155.49333,1000 c 0,233.2067 94.52667,444.34 247.34,597.16 152.84,152.8067 363.96667,247.36 597.17337,247.36 20.48,0 41.1933,-0.78 62.06,-2.3067 21.24,-1.5466 41.7133,-3.7533 61.4466,-6.6533 l 4.7467,32.5333 c -21.5867,3.1467 -42.9,5.5334 -63.8733,7.0334 -20.88,1.5266 -42.3467,2.2933 -64.3734,2.2933 -242.27997,0 -461.6533,-98.2133 -620.4333,-257 C 220.8,1461.6267 122.58667,1242.28 122.58667,1000 c 0,-8.42 0.12666,-16.67333 0.33333,-24.74 0.25333,-8.69333 0.58667,-16.93333 1.00667,-24.66667 z" id="path10" style="stroke-width:6.66667;fill:#da121a;fill-opacity:1"/>
<path fill="#d2122e" d="m 187.37333,955.85333 c -0.39333,7.42667 -0.68666,14.76 -0.88,22.01334 C 186.3,985.24667 186.2,992.64 186.2,1000 c 0,224.7133 91.09333,428.1667 238.36,575.44 147.26667,147.2667 350.72,238.3467 575.4467,238.3467 20.1866,0 40.34,-0.74 60.34,-2.2067 20.2866,-1.4867 40.2266,-3.6933 59.7933,-6.5933 l 1.1933,8.1466 c -20.0533,2.96 -40.1866,5.2 -60.4,6.68 -20.0133,1.46 -40.3466,2.22 -60.9266,2.22 -226.99337,0 -432.5067,-92.0266 -581.2667,-240.7866 C 269.98,1432.5067 177.97333,1226.9933 177.97333,1000 c 0,-7.49333 0.0933,-14.93333 0.29334,-22.32 0.18666,-7.55333 0.49333,-14.98 0.88,-22.24667 z" id="path12" style="stroke-width:6.66667;fill:#da121a;fill-opacity:1"/>
<path fill="#d2122e" d="m 101.6,947.64 c -0.5,8.78667 -0.88,17.52 -1.12667,26.16667 C 100.22667,982.53333 100.1,991.27333 100.1,1000 c 0,248.4933 100.72667,473.4733 263.57333,636.3267 C 526.52667,1799.16 751.50667,1899.9 1000.0067,1899.9 c 21.92,0 43.76,-0.8133 65.4733,-2.36 22.0267,-1.58 43.66,-3.94 64.9,-7.0133 l 1.1467,8.12 c -21.7467,3.16 -43.5867,5.56 -65.46,7.1266 -21.7134,1.5334 -43.7534,2.36 -66.06,2.36 -250.77337,0 -477.8067,-101.6533 -642.1467,-266 C 193.52667,1477.7933 91.866667,1250.78 91.866667,1000.0067 c 0,-8.8867 0.133333,-17.6867 0.38,-26.42003 0.26,-8.93334 0.633333,-17.74 1.133333,-26.38667 z" id="path14" style="stroke-width:6.66667;fill:#da121a;fill-opacity:1"/>
<path fill-rule="evenodd" clip-rule="evenodd" d="m 1232.6067,1839.08 -21.38,5.6467 1.2866,-36.4267 z m -15.78,-54.0933 -20.08,5.28 -5.1334,94.1933 18.3334,-4.8533 0.6733,-18.54 31.0533,-8.18 10.24,15.68 18.64,-4.9134 z" id="path16" style="stroke-width:6.66667"/>
<path id="polygon18" transform="matrix(6.6666667,0,0,6.6666667,-22.52,-29.186667)" style="clip-rule:evenodd;fill-rule:evenodd" d="m 208.559,278.327 -3.235,-7.766 -1.058,5.019 -0.378,0.157 -4.31,-2.785 3.235,7.767 -2.478,1.031 -5.178,-12.431 2.157,-0.899 5.115,3.282 1.272,-5.939 2.159,-0.898 5.176,12.428 z"/>
<path fill-rule="evenodd" clip-rule="evenodd" d="m 1439.14,1713.98 c -11.9333,0.1867 -18.4333,1.3333 -23.7333,4.3867 -5.56,3.1933 -7.68,7.7666 -5.4467,11.6333 6.7667,11.7467 36.5267,-9.78 52.1533,17.3867 8.5934,14.9333 3.5334,29.3933 -10.3333,37.36 -10.8533,6.2466 -18.2733,5.8066 -26.8,5.3933 l -9.64,-16.7733 c 13.2133,2.2533 20.2,1.7333 27.04,-2.18 5.9533,-3.44 7.62,-7.88 5,-12.4467 -7.3533,-12.78 -36.3333,10.1067 -52.4133,-17.8267 -7.7267,-13.4733 -3.5467,-27.7266 10.8733,-36.0133 6.9333,-4.0133 14.2867,-5.7933 24.5667,-6.0933 z" id="path20" style="stroke-width:6.66667"/>
<path id="polygon22" transform="matrix(6.6666667,0,0,6.6666667,-22.52,-29.186667)" style="clip-rule:evenodd;fill-rule:evenodd" d="m 233.143,264.103 -6.559,-8.826 -3.132,2.324 -1.473,-1.98 8.419,-6.253 1.472,1.978 -3.132,2.328 6.56,8.829 z"/>
<path id="polygon24" transform="matrix(6.6666667,0,0,6.6666667,-22.52,-29.186667)" style="clip-rule:evenodd;fill-rule:evenodd" d="m 240.163,240.451 1.697,1.794 -3.741,3.535 1.94,2.052 3.569,-3.373 1.695,1.792 -3.569,3.377 2.225,2.351 3.821,-3.615 1.697,1.795 -5.774,5.46 -9.251,-9.785 z"/>
<path fill-rule="evenodd" clip-rule="evenodd" d="m 1629.76,1542.02 5.8267,-6.96 c 4.3266,-5.1533 9.18,-5.62 14.32,-1.2867 5.8533,4.9 4.7533,10.2867 1.5733,14.0867 l -6.0933,7.2667 z m -24.1067,3.1333 68.7667,57.7 11.5133,-13.72 -27.9266,-23.4533 3.3066,-3.9467 c 6.24,-7.4133 21.2667,1.4867 40.9334,7.9534 l 12.66,-15.0934 c -26.6734,-9.1666 -36.5534,-14.6 -44.82,-11.9066 1.64,-9.32 -1.3667,-17.22 -8.9267,-23.5734 -10.2867,-8.6133 -25.3933,-9.8666 -34.86,1.4067 z" id="path26" style="stroke-width:6.66667"/>
<path fill-rule="evenodd" clip-rule="evenodd" d="m 1689.1733,1464.2467 6.2267,-9.6534 c 9.1933,-14.26 23.74,-12.76 36.68,-4.4 11.0533,7.12 20.9733,19.9134 11.2133,35.06 l -6.3333,9.8134 z m -23.5266,6.12 75.4333,48.6666 16.0933,-24.9466 c 15.5267,-24.0734 6.6867,-45.3467 -14.9933,-59.32 -20.6733,-13.3467 -45.14,-13.0667 -59.36,8.96 z" id="path28" style="stroke-width:6.66667"/>
<path fill-rule="evenodd" clip-rule="evenodd" d="m 1789.46,1367.44 -9.58,19.9133 L 1753,1362.76 Z m -51.4133,-23.1 -8.9867,18.7 68.3467,65.0133 8.2133,-17.0933 -13.6933,-12.5333 13.92,-28.96 18.58,2.3933 8.3466,-17.3667 z" id="path30" style="stroke-width:6.66667"/>
<path id="polygon32" transform="matrix(6.6666667,0,0,6.6666667,-22.52,-29.186667)" style="clip-rule:evenodd;fill-rule:evenodd" d="m 283.506,192.789 -8.009,-2.57 3.133,4.057 -0.127,0.392 -4.91,1.472 8.008,2.574 -0.822,2.557 -12.82,-4.12 0.715,-2.227 5.814,-1.762 -3.697,-4.823 0.715,-2.227 12.82,4.121 z"/>
<path fill-rule="evenodd" clip-rule="evenodd" d="m 120.90667,755.1 95.6,-8.27333 L 198.17333,814.12 Z M 272.02,871.52 l -39.25333,-30.29333 26.76,-98.23334 48.66,-4.25333 16.48,-60.45333 -251.980003,26.76 -17.926667,65.82 200.72,161.44 z" id="path34" style="stroke-width:6.66667"/>
<path fill-rule="evenodd" clip-rule="evenodd" d="m 378.96667,641.11333 c 7.98,-12.08 11.08666,-21.75333 9.35333,-29.03333 -1.74667,-7.28 -10.42,-16.43333 -26.03333,-27.46 l -173.06,-122.39333 34.17333,-48.34 174.72667,123.54 C 425.18667,556.58 440.93333,574.54 445.36,591.32 c 4.42,16.8 -1.01333,36.66667 -16.30667,59.66667 z" id="path36" style="stroke-width:6.66667"/>
<path fill-rule="evenodd" clip-rule="evenodd" d="m 460.97333,263.16667 80.13334,52.88 -55.96,41.36666 z m 46.62,184.98666 -12.18,-48.24 81.7,-60.38 40.9,27.01334 50.26667,-37.16 L 454.20667,194.22 l -54.74,40.46 57.48666,250.88667 z" id="path38" style="stroke-width:6.66667"/>
<path id="polygon40" style="clip-rule:evenodd;fill-rule:evenodd;stroke-width:6.66667" d="M 912.93359 22.720703 L 840.82031 38.919922 L 800.66016 118.8457 L 730.51367 63.679688 L 658.06055 79.947266 L 774.36719 170.41406 L 704.13281 311.57422 L 775.85938 295.47266 L 820.33398 206.44727 L 898.9668 267.8125 L 973.05273 251.19336 L 845.67383 153.70703 L 912.93359 22.720703 z "/>
<path style="stroke-width:6.66667" d="m 733.95333,1566.54 c 0.28667,0.053 98.84,15.72 110.98,147.7267 0.74667,8.1933 1.5,16.3733 -14.82,17.8466 -16.32666,1.4934 -17.08,-6.7133 -17.82666,-14.9 -9.80667,-106.58 -83.52667,-118.2466 -83.73334,-118.28 -8.10666,-1.38 -16.22,-2.7533 -13.51333,-18.96 2.7,-16.1866 10.80667,-14.8066 18.91333,-13.4333 z" id="path83"/><path style="stroke-width:6.66667" d="m 1349.6867,1323.5933 c -0.1134,0 -39.4934,2.9867 -39.7867,38.0067 0.1467,2.5 2.5867,29.1533 38.3867,29.1533 29.7877,-1.3491 38.033,-18.29 44.9666,-35.86 2.8667,-7.7 5.74,-15.4266 21.1,-9.7133 15.3734,5.7267 12.4934,13.4467 9.6134,21.16 -23.5867,63.3867 -65.809,57.3067 -77.42,57.3067 -67.72,-1 -69.5667,-60.9267 -69.5667,-61.0934 v -0.5733 c 0,-66.0867 69.6867,-71.2933 69.88,-71.3133 8.2,-0.72 16.3933,-1.4667 17.8067,14.9933 1.4133,16.4467 -6.7867,17.2067 -14.98,17.9333 z" id="path81" sodipodi:nodetypes="cccccccssccc"/><path style="stroke-width:6.66667" d="m 706.04,651.72 c 0.16,0 58.09333,0.04 194.86667,-88.82 l -0.51334,0.32 C 900.86,562.9 1061.9533,449.17333 1190.4533,448.1 h 0.5867 c 0.2467,0.0133 91.1133,2.17333 151.8067,44.1 6.76,4.67333 13.5333,9.35333 4.22,22.84667 -9.32,13.5 -16.0867,8.82 -22.8534,4.15333 -51.2066,-35.37333 -129.9933,-38.06 -133.92,-38.16667 C 1072.0533,482.26667 919.72667,589.78 919.28,590.08 l -0.51333,0.32667 c -144.98,94.19333 -212.16,94.22 -212.36,94.22 -8.22,0.0933 -16.44667,0.21333 -16.64667,-16.25334 -0.17333,-16.44 8.05333,-16.54666 16.28,-16.65333 z" id="path79"/><path style="stroke-width:6.66667" d="m 934.00667,1044.2733 0.0467,0.027 c 0.007,-0.01 -0.0133,-0.01 -0.0467,-0.027 z" id="path77"/><path style="stroke-width:6.66667" d="m 949.62,1074.5533 0.0333,0.2 c 0,0 -0.0133,-0.06 -0.0333,-0.2 z" id="path75"/><path style="stroke-width:6.66667" d="m 578.61333,1021.5733 h -0.0267 z" id="path73"/><path style="stroke-width:6.66667" d="m 639.75333,875.48667 c -0.14,0.20666 -47.4,78.56666 -52.32,90.85333 l -2.32,4.05333 C 585.08,970.44 571.68,987.48 588.92667,990.72 l 4.30666,1.42 c 0.02,0.0133 7.49334,3.7467 20.1,3.7467 8.22667,0 16.45334,0 16.45334,16.4533 0,16.4667 -8.22,16.4667 -16.45334,16.4667 -15.55333,0 -27.64,-4.24 -32.46,-6.2267 -60.6,-12.5467 -29.96,-60.77333 -22.92,-70.69333 C 567.01333,932.39333 611.46,858.74 611.6,858.52 c 4.24,-7.03333 8.48,-14.09333 22.55333,-5.61333 14.08667,8.48666 9.84667,15.52666 5.6,22.58 z" id="path71"/><path style="stroke-width:6.66667" d="m 1126.9733,890.26667 c 0.027,0.1 0.047,0.15333 0.06,0.16666 z" id="path69"/><path style="stroke-width:6.66667" d="m 1436.5267,416.57333 c 37.9666,10.46 195.2333,67.62667 195.2333,296.85334 V 713.24 c 0.02,0.98667 8.6667,346.7533 -314.6667,346.7533 h 1.22 c -0.4266,0.027 -148.4,13.3467 -222.0066,-158.0533 l -0.5267,-1.48 c -0.1,-0.32667 -37.54,-118.99333 -100.38,-118.13333 l -3.66667,-0.38 c -0.0467,-0.02 -18.16,-4.41334 -44.8,17.22666 -6.38,5.17334 -12.75333,10.37334 -23.10666,-2.36 -10.34667,-12.72666 -3.96667,-17.92 2.42,-23.1 33.34666,-27.09333 62.33333,-25.4 70.28,-24.28 81.65333,0.43334 125.49333,125.88 130.10003,139.74 C 1190.8333,1038.38 1315.5,1027.1 1315.8733,1027.0667 h 1.2334 c 289.56,0 281.7666,-312.55337 281.7666,-313.45337 v -0.18666 c 0,-185.10667 -111.1733,-244.31334 -157.3466,-260.94 V 551.76 c 85.1733,62.18667 87.4066,132.92 87.4066,133.12667 0.4067,8.21333 0.8,16.43333 -15.6533,17.20666 -16.4733,0.76667 -16.8533,-7.44666 -17.2467,-15.66 v 0 c -0.013,-0.16666 -1.72,-57 -76.66,-110.17333 -7.6297,-4.405 -10.7666,-10.98981 -10.7666,-20.36667 V 429.18 c 0.04,-5.03333 0.4266,-9.87333 5.0133,-12.64 8.0322,-4.63738 15.0292,-1.84225 22.9067,0.0333 z" id="path67"/><path style="stroke-width:6.66667" d="m 1006.28,1282.52 c -0.053,0.2067 -19.78,74.9 -38.75333,107.02 l -0.89334,1.3533 c -0.1,0.1267 -32.78,44.5134 4.96667,23.8867 l 1.99333,-0.9667 c 0.16,-0.06 53.82667,-21.2733 88.86667,-25.6533 8.16,-1.0133 16.32,-2.04 18.32,14.3 1.9867,16.3067 -6.18,17.3333 -14.3267,18.3533 -28.6466,3.5867 -74.14663,20.9734 -80.41997,23.4334 -159.52,86.72 -55.18,-59.9334 -46.45333,-71.98 16.58,-28.5534 34.90667,-97.9134 34.96,-98.1067 2.11333,-7.9467 4.24,-15.9 20.11333,-11.7267 15.86667,4.18 13.73997,12.1334 11.62667,20.0867 z" id="path65"/><path style="stroke-width:6.66667" d="m 707.88,807.93333 c -0.0533,0.06 -20.07333,22.58 -10.1,23.39334 9.93333,-0.98 69.12,-4.81334 69.12,43.9 v -1.34 c 0.0133,0.15333 6.51333,61.38 -60.2,44.7 l -5.46,-2.45334 c -0.0133,0 -4.72,-3.41333 -3.16667,32.54 0.22667,1.66 0.26,3.40667 0.26667,5.16667 l 0.007,0.0733 c 0.12,2.30667 0.24666,4.60667 0,6.74667 v 56.95333 c 12.52666,16.38 44.99333,66.66 -29.14,66.2067 -2.31334,0.3933 -4.83334,0.1467 -7.38,-0.1933 -2.94,-0.1334 -5.86667,-0.2667 -8.38667,-1.1534 l -32.68667,-4.5266 c -8.14666,-1.0934 -16.3,-2.2334 -14.11333,-18.4867 2.18667,-16.2733 10.33333,-15.14 18.48,-14.02 l 38.45333,5.2867 c 14.44667,0.6 12.14,-7.14 9.1,-12.26 -3.42373,-5.9301 -7.23333,-11.7516 -7.23333,-21.26 v -61.6334 c -5.14667,-94.42666 39.30667,-75.36 51.60667,-68.34666 18.54,3.56 16.95333,-10.61334 16.95333,-10.65334 v -1.34666 c 0,-15.46 -33.56,-11.11334 -33.66,-11.1 l -1.99333,0.12 c -84.68667,0 -15.21334,-77.82667 -15.01334,-78.04667 5.45334,-6.15333 10.92,-12.30667 23.18667,-1.44667 12.28,10.86667 6.81333,17.03334 1.36,23.18 v 0 z" id="path61"/><path style="stroke-width:6.66667" d="m 1371.14,1513.66 v 0.073 z" id="path59"/><path style="stroke-width:6.66667" d="m 1236.5333,1484.5733 c -0.14,0.14 -0.2133,0.2267 -0.2133,0.2267 z" id="path57"/><path style="stroke-width:6.66667" d="m 1300.3,1617.8733 v 0 0.04 0.033 c 0.033,1.1 0.46,12.34 1.34,11.5266 l 0.3933,-0.3 c 0.073,-0.067 26.5,-21.84 36.7867,-120.7666 l 0.32,-2.0134 c 0.073,-0.2666 22.4867,-99.84 99.6,-4.46 5.06,5.16 49.5933,49.6667 52.04,11.7 -5.3067,-15.88 -30.1133,-90.1133 -35.2133,-104.4733 -5.1534,-8.98 -35.86,-68.72 59.7466,-70.4867 h 1.16 c 0.1734,0 59.7267,2.8467 122.6134,25.6934 7.7133,2.8133 15.4533,5.62 9.8666,21.0466 -5.5933,15.4267 -13.3333,12.6334 -21.0466,9.8134 -54.9867,-19.9734 -107.7267,-23.34 -112.8334,-23.6334 -43.94,1.0467 -30.7,21.5467 -30.6666,21.5867 l 1.2733,2.84 c 4.64,12.38 37.1133,109.9333 37.2133,110.2 l 0.9067,5.4667 c -2.0267,125.3066 -108.8733,12.8 -109.1933,12.4933 l -0.9667,-1.08 c -31.9067,-39.7267 -40.9733,-14.7267 -42.32,-10.0933 -11.8067,111.16 -47.9733,141.12 -48.1,141.2066 l 0.4067,-0.3066 c -44.1467,39.7266 -53.6934,-8.8934 -55.7134,-27.9667 -0.4866,-2.1867 -0.52,-4.5933 -0.52,-7.0133 v -0.04 c -0.073,-1.8134 -0.1266,-3.6067 0,-5.34 v -85.6534 c 0,-68.66 -26.4133,-47.3533 -30.5333,-43.62 -93.4867,102.98 -145.6733,267.5334 -145.8133,268 -2.5267,7.84 -5.0267,15.6667 -20.6534,10.6534 -15.6133,-5.0067 -13.0933,-12.84 -10.5933,-20.6667 v 0 c 0.16,-0.5 54.5467,-172.0733 152.92,-280.2867 l 0.7067,-0.7133 c 0.2533,-0.22 85.74,-85.4933 86.8266,63.78 0.04,0.94 0.04,1.8867 0.04,2.8533 v 0.3934 0.38 0.3933 88.8133 z" id="path55"/><path style="stroke-width:6.66667" d="m 879.86,1011.1067 c -7.03333,6.1933 -25.53333,24.08 -28.13333,43.1933 l -1.14,8.3267 -7.34667,3.92 c -0.1,0.067 -35.28,19.1266 -79.12,26.44 -8.11333,1.3266 -16.22667,2.6933 -18.92667,-13.5134 -2.69333,-16.1733 5.41334,-17.5266 13.52,-18.8933 27.78667,-4.6267 51.42,-14.5333 62.39334,-19.6867 C 827.48,1018.3333 844.84,999.24 854.9,989.63333 l -15.06667,-95.44 25.83334,-15.82 L 955.24,943.52 c 6.52,3.60667 8.94667,7.16 9.3,10.66667 0.48667,3.02666 -0.48667,6.80666 -3.94,11.87333 -22.22,42.8933 -9.86667,49.9467 -9.83333,49.9733 l 2.24666,1.6067 c 22.16667,18.7533 28.76,50.1133 28.76,50.1933 l 0.14,0.6334 c 14.76667,84.5933 -11.58666,116.28 -18.18,122.72 -13.41333,16.5333 -34.34,65.6733 -38.38,75.28 -10.51333,53.3533 -61.70666,54.7666 -72.46666,54.4733 -45.04,8.9467 -61.26,18.2 -61.30667,18.2333 L 789.96667,1340 c -45.56,20.0933 -80.07334,7.8533 -89.93334,3.4333 -39.18,-8.3533 -52.11333,-26.8066 -52.14666,-26.8533 l -1.99334,-3.86 c -13.72666,-37.7267 -34.90666,-44.7867 -34.97333,-44.8133 l -5.33333,-2.96 c -60.02,-49.72 -17.9,-105.8867 -17.78,-106.06 l 1.54,-1.8467 c 3.44666,-3.4533 11.98,-15.68 19.92,-27.4333 -4.75334,-1.28 -8.28,-5.0134 -8.28,-15.7867 0,-16.4533 8.22666,-16.4533 16.44666,-16.4533 h 47.99334 c 8.22,0 16.46,0 16.46,16.4533 0,16.4467 -8.24,16.4467 -16.46,16.4467 H 648.22 c -8.78,13.3466 -26.96667,40.5866 -34.66,49.0266 -3.38,5.14 -18.96,32.4534 11.35333,58.9467 9.49334,4.5333 35.13334,19.9733 50.75334,60.4467 2.48,2.3733 10.69333,8.4933 32.74,12.9 l 4.82666,1.8066 c 0.0667,0.033 24.32667,13.7534 63.30667,-3.38 5.54,-2.8066 27.74,-13.08 72.28667,-21.7333 l 4.11333,-0.3333 c 0.0933,0 34.75333,2.88 40.36667,-28.8734 l 1.02,-3.4 c 0.0867,-0.1933 27.1,-65.5866 45.20666,-86.7066 l 2.18667,-2.18 c 0.0467,-0.04 21.14667,-15.9734 7.82667,-92.4667 -0.74,-3.16 -5.44,-21.2 -17.74667,-31.6133 l 0.14,0.1133 c -7.12667,-5.66 -28.6,-28.0467 -6.14667,-80.06667 l -47.4,-34.46 L 888.08,989.6 c 1.4312,9.35095 -1.69447,14.9812 -8.22,21.5067 z" id="path53" sodipodi:nodetypes="cccccccccccccccccccccccccccccccssssscccccccccccccccccccc"/><path style="stroke-width:6.66667" d="m 394.59333,1369.22 c 0.29334,-0.06 102.21334,-24.4133 328.84667,74.7933 3.79333,1.3534 44.53333,15.68 74.22667,19.9134 -0.64,-1.96 -2.92,-5.5934 -9.48667,-12.1467 -5.80667,-5.8267 -11.62667,-11.6333 0,-23.26 11.64,-11.6267 17.46,-5.8267 23.26667,0 47.34666,47.3333 -0.82667,67.72 -0.96,67.8 l -7.91334,1.4133 c -34.69333,-2.88 -90.46666,-22.9266 -90.62666,-22.96 L 710.98,1474.38 c -217.15333,-95.1733 -309.18,-73.06 -309.44667,-73.0267 -8.04,1.7867 -16.08,3.5334 -19.54666,-12.5266 -3.46,-16.0867 4.57333,-17.84 12.60666,-19.6067 z" id="path42"/>
</svg>